Coordinates
version=1
nRows=10
nColumns=63
inDegrees=yes

Units are S.I. units (second, meters, Newtons, ...)
If the header above contains a line with 'inDegrees', this indicates whether rotational values are in degrees (yes) or radians (no).

endheader
time	pelvis_tilt	pelvis_list	pelvis_rotation	pelvis_tx	pelvis_ty	pelvis_tz	hip_flexion_r	hip_adduction_r	hip_rotation_r	knee_angle_r	knee_angle_r_beta	ankle_angle_r	subtalar_angle_r	mtp_angle_r	hip_flexion_l	hip_adduction_l	hip_rotation_l	knee_angle_l	knee_angle_l_beta	ankle_angle_l	subtalar_angle_l	mtp_angle_l	L5_S1_Flex_Ext	L5_S1_Lat_Bending	L5_S1_axial_rotation	L4_L5_Flex_Ext	L4_L5_Lat_Bending	L4_L5_axial_rotation	L3_L4_Flex_Ext	L3_L4_Lat_Bending	L3_L4_axial_rotation	L2_L3_Flex_Ext	L2_L3_Lat_Bending	L2_L3_axial_rotation	L1_L2_Flex_Ext	L1_L2_Lat_Bending	L1_L2_axial_rotation	L1_T12_Flex_Ext	L1_T12_Lat_Bending	L1_T12_axial_rotation	Abs_r3	Abs_r2	Abs_r1	Abs_t1	Abs_t2	neck_flexion	neck_bending	neck_rotation	arm_flex_r	arm_add_r	arm_rot_r	elbow_flex_r	pro_sup_r	wrist_flex_r	wrist_dev_r	arm_flex_l	arm_add_l	arm_rot_l	elbow_flex_l	pro_sup_l	wrist_flex_l	wrist_dev_l
      1.72881356	     -4.45300741	    -27.12368808	     83.28507562	      0.34794582	      0.74783046	      0.74900510	     39.39340411	     -0.99715177	     24.58542098	      2.20155640	      0.03842441	     24.17159215	    -13.18289588	      0.00000000	     42.48263595	     -3.66221309	    -21.74189803	     14.96361129	      0.26116428	     34.11634125	     17.42149915	      0.00000000	      0.61464454	     -1.19434648	      0.51507310	      1.14145637	     -1.58848082	      0.54726517	      1.00979951	     -2.90393403	      0.54726517	      0.70247724	     -2.90393403	      0.45068897	      0.57075892	     -2.43551134	      0.41849690	      0.35120789	     -1.85004270	      0.38630483	      4.39034447	    -13.51068625	      2.86468209	      0.00000000	      0.00000000	     28.37260336	      1.92404320	    -33.63512228	     68.87717730	     -4.33317383	     30.55546375	     46.38115694	     87.26810344	     -9.38716117	     -2.62932449	     60.94839869	      8.33038134	      8.63039218	     49.22787480	     67.53854574	    -16.13334200	     -5.87332358
      1.74576271	     -6.79323417	    -27.12889810	     81.44502685	      0.35242570	      0.74789727	      0.74741498	     39.72783751	     -1.92171670	     26.59690946	      2.25058633	      0.03928014	     24.25594085	    -13.65166030	      0.00000000	     42.04318983	     -2.57324880	    -23.56499133	     14.07353460	      0.24562952	     33.69503935	     17.64467398	      0.00000000	      0.63431272	     -1.51086629	      0.89002987	      1.17798214	     -2.00945217	      0.94565674	      1.04211236	     -3.67352031	      0.94565674	      0.72495600	     -3.67352031	      0.77877613	      0.58902279	     -3.08095855	      0.72314927	      0.36244629	     -2.34033189	      0.66752240	      4.53083230	    -17.09122168	      4.95007912	      0.00000000	      0.00000000	     28.37368528	      1.69689912	    -36.86441956	     70.16298575	     -3.26105969	     29.19949726	     45.64903629	     84.93095822	     -6.38635872	     -0.95508316	     60.75031113	      8.22874529	      7.51939358	     50.72181264	     72.20474502	    -16.34465160	     -6.00817915
      1.76271186	     -8.58551735	    -27.12558840	     80.26190229	      0.35552369	      0.74797340	      0.74558442	     39.94790528	     -2.73087715	     27.47695481	      2.27856809	      0.03976852	     24.49900237	    -13.89616756	      0.00000000	     41.70856313	     -1.55532671	    -24.48069056	     13.20139288	      0.23040777	     33.24122527	     17.70225534	      0.00000000	      0.63942446	     -1.74645191	      1.20066980	      1.18747516	     -2.32278105	      1.27571166	      1.05051045	     -4.24632318	      1.27571166	      0.73079822	     -4.24632318	      1.05058607	      0.59376955	     -3.56136474	      0.97554421	      0.36536714	     -2.70525401	      0.90050235	      4.56734498	    -19.75621334	      6.67776520	      0.00000000	      0.00000000	     28.37160103	      1.52717701	    -38.98747641	     71.75524753	     -2.76723504	     29.58177045	     44.75714137	     81.96867147	     -4.31062659	      0.63983909	     60.51204046	      8.06029131	      6.66712322	     52.42887482	     74.38464577	    -16.64719670	     -4.98284617
      1.77966102	    -10.42807400	    -27.14959035	     78.98968272	      0.35883010	      0.74799344	      0.74355521	     40.27210613	     -3.47381861	     28.11724907	      2.40084044	      0.04190257	     24.86214035	    -14.11411380	      0.00000000	     41.47549410	     -0.61589558	    -25.41514363	     12.47351130	      0.21770384	     32.76225168	     17.73769118	      0.00000000	      0.65234752	     -1.98226238	      1.52878696	      1.21147457	     -2.63640896	      1.62433615	      1.07174174	     -4.81967274	      1.62433615	      0.74556798	     -4.81967274	      1.33768859	      0.60576990	     -4.04222944	      1.24213941	      0.37275137	     -3.07052442	      1.14659022	      4.65965308	    -22.42374844	      8.50265444	      0.00000000	      0.00000000	     28.36120534	      1.32505709	    -40.81686173	     72.97632970	     -2.35158105	     30.03586349	     44.11561765	     78.74338327	     -3.08889942	      1.86534688	     60.65060213	      7.68807607	      6.18784514	     53.74575272	     76.65285557	    -16.72548348	     -3.00023275
      1.79661017	    -11.47737519	    -27.44260738	     78.70166341	      0.36049365	      0.74752207	      0.74176937	     40.59220900	     -4.03133579	     27.64833233	      2.43673681	      0.04252908	     25.13417562	    -14.50968820	      0.00000000	     41.74111562	      0.04123533	    -25.36557971	     12.29794422	      0.21463962	     32.55480028	     17.74148829	      0.00000000	      0.67703182	     -2.10372471	      1.70174921	      1.25731579	     -2.79795387	      1.80810854	      1.11229557	     -5.11499627	      1.80810854	      0.77377967	     -5.11499627	      1.48903056	      0.62869175	     -4.28991544	      1.38267123	      0.38685598	     -3.25866958	      1.27631191	      4.83597058	    -23.79775470	      9.46461859	      0.00000000	      0.00000000	     28.34939457	      0.68534870	    -41.63503723	     74.08108400	     -1.79938071	     30.47594993	     43.43371428	     78.02261950	     -2.59796049	      2.62991425	     61.17869631	      7.41824325	      5.72564107	     54.22271858	     77.14388083	    -16.72984943	     -2.08085642
      1.81355932	    -12.90085409	    -27.64607827	     78.05174678	      0.36216851	      0.74716040	      0.73958050	     41.05282110	     -4.69200453	     27.35566464	      2.82708813	      0.04934200	     25.83148294	    -14.71557175	      0.00000000	     41.73677941	      0.96884170	    -25.38760495	     11.61276923	      0.20268106	     32.03687313	     17.69362060	      0.00000000	      0.69869461	     -2.25819027	      1.90013443	      1.29754575	     -3.00339306	      2.01889283	      1.14788537	     -5.49056383	      2.01889283	      0.79853807	     -5.49056383	      1.66261762	      0.64880781	     -4.60490160	      1.54385922	      0.39923410	     -3.49793673	      1.42510082	      4.99070570	    -25.54509999	     10.56797764	      0.00000000	      0.00000000	     28.34448276	      0.13707207	    -42.47534465	     74.88340030	     -1.30694531	     30.41869508	     43.06933588	     76.62740810	     -1.57983225	      3.06993090	     62.06184696	      7.14525922	      5.37329738	     54.43048979	     77.96965255	    -16.41470889	      0.09917897
      1.83050847	    -14.11231172	    -27.83775496	     77.32353098	      0.36360574	      0.74679980	      0.73690725	     41.44931574	     -5.10112605	     26.81456237	      3.23429336	      0.05644907	     26.56428884	    -14.64060498	      0.00000000	     41.66062953	      1.68694519	    -25.24811971	     10.84383080	      0.18926055	     31.79227959	     17.60561350	      0.00000000	      0.73408912	     -2.38174507	      2.08990813	      1.36327690	     -3.16772095	      2.22052739	      1.20603501	     -5.79097497	      2.22052739	      0.83899045	     -5.79097497	      1.82866962	      0.68167515	     -4.85685455	      1.69805036	      0.41945852	     -3.68932312	      1.56743110	      5.24352515	    -26.94277662	     11.62344207	      0.00000000	      0.00000000	     28.34899603	      0.01747923	    -42.86613888	     75.28705267	     -0.75858536	     29.64740557	     42.97308959	     74.98491997	     -0.07424403	      2.64865749	     62.81409959	      7.02393659	      4.74076895	     54.57732342	     79.18993494	    -15.53423660	      1.75871545
      1.84745763	    -14.56091999	    -28.11374328	     77.34660320	      0.36353774	      0.74642008	      0.73527779	     41.68784573	     -5.29239479	     25.16600434	      3.52074583	      0.06144861	     27.15271355	    -14.11746033	      0.00000000	     41.83709511	      2.07281994	    -24.39427943	     10.44010267	      0.18221417	     31.73781876	     17.53381688	      0.00000000	      0.75246909	     -2.40275321	      2.16059602	      1.39741035	     -3.19566178	      2.29563327	      1.23623147	     -5.84205417	      2.29563327	      0.85999692	     -5.84205417	      1.89052151	      0.69874280	     -4.89969435	      1.75548426	      0.42996084	     -3.72186473	      1.62044701	      5.37481147	    -27.18042491	     12.01658686	      0.00000000	      0.00000000	     28.34830806	     -0.43445745	    -42.92410328	     75.89930163	     -0.35927730	     28.85439459	     42.89512268	     75.29474279	      1.29714217	      1.85178276	     63.58445444	      7.20392958	      3.78156567	     54.42073329	     80.25880455	    -14.57461916	      2.09701293
      1.86440678	    -14.79909167	    -28.27497405	     77.55907882	      0.36288179	      0.74632057	      0.73418892	     41.80054597	     -5.42373998	     24.09687910	      3.83949106	      0.06701176	     27.36902945	    -14.63631208	      0.00000000	     41.91158630	      2.41174528	    -23.50018594	      9.98134014	      0.17420725	     31.68304838	     17.71806755	      0.00000000	      0.74828739	     -2.39394108	      2.21215596	      1.38964451	     -3.18394163	      2.35041571	      1.22936135	     -5.82062833	      2.35041571	      0.85521766	     -5.82062833	      1.93563647	      0.69485967	     -4.88172464	      1.79737672	      0.42757141	     -3.70821473	      1.65911697	      5.34494198	    -27.08074024	     12.30334782	      0.00000000	      0.00000000	     28.34106254	     -1.03732278	    -42.67572458	     76.25585178	     -0.34852417	     27.92374701	     43.51179726	     75.64002167	      1.69160414	      0.65329779	     64.25021172	      7.13873628	      3.81301832	     54.50921959	     80.33262641	    -13.97813594	      1.49830276
      1.88135593	    -14.69789417	    -28.33298137	     78.13021002	      0.36174180	      0.74659336	      0.73355864	     41.77045924	     -5.51663071	     21.92807613	      4.22266335	      0.07369938	     27.86439941	    -13.77991938	      0.00000000	     41.92199796	      2.70221593	    -21.71638464	      9.56047186	      0.16686171	     31.66506705	     17.20332409	      0.00000000	      0.72685128	     -2.35438098	      2.20304891	      1.34983551	     -3.13132670	      2.34073947	      1.19414397	     -5.72444191	      2.34073947	      0.83071833	     -5.72444191	      1.92766779	      0.67495410	     -4.80105369	      1.78997724	      0.41532282	     -3.64693613	      1.65228668	      5.19182601	    -26.63322849	     12.25269711	      0.00000000	      0.00000000	     28.32432089	     -1.15007062	    -42.18265836	     75.78944283	      0.36861939	     23.46630599	     44.41535810	     79.90475487	      3.82386076	     -0.40172969	     64.71534012	      7.06401380	      3.96334074	     54.79049468	     81.52021718	    -12.76850690	     -0.20359035
